<?xml version="1.0" encoding="utf-8"?>
<!-- Generator: Adobe Illustrator 24.1.1, SVG Export Plug-In . SVG Version: 6.00 Build 0)  -->
<svg version="1.1" id="Layer_1" xmlns="http://www.w3.org/2000/svg" xmlns:xlink="http://www.w3.org/1999/xlink" x="0px" y="0px"
	 viewBox="0 0 1600 1673.71" style="enable-background:new 0 0 1600 1673.71;" xml:space="preserve">
<style type="text/css">
	.st0{fill:#1DB8C3;}
	.st1{fill:#FFFFFF;}
	.st2{fill:#FD507E;}
	.st3{fill:none;stroke:#FD507E;stroke-width:12.8388;stroke-miterlimit:10;}
	.st4{fill:#FFFFFF;stroke:#FD507E;stroke-width:12.8388;stroke-miterlimit:10;}
</style>
<g>
	<g>
		<g>
			<path class="st0" d="M552.77,222.64c-0.53,1.94-0.77,3.97-0.77,6.07c0,13.6,11.09,24.64,24.64,24.64h30.71v12.14h-30.71
				c-20.27,0-36.78-16.51-36.78-36.78c0-2.06,0.16-4.09,0.53-6.07H552.77z"/>
			<path class="st0" d="M614.85,291.19v12.14h-38.2c-40.38,0-73.85-32.82-74.58-73.2c-0.4-19.63,7.2-38.4,21.33-52.81
				c14.49-14.77,34.56-23.23,55.07-23.23h36.38v50.02h-65.51c6.72-7.45,16.47-12.14,27.31-12.14h26.06v-25.74h-24.24
				c-17.28,0-34.19,7.16-46.41,19.59c-11.82,12.06-18.17,27.72-17.85,44.11c0.61,33.79,28.65,61.26,62.44,61.26H614.85z"/>
			<path class="st0" d="M651.27,266.59v36.74h-12.14v-36.74c0-17.52-14.24-31.81-31.77-31.81h-16.19v-12.14h16.19
				C631.6,222.64,651.27,242.35,651.27,266.59z"/>
			<circle class="st0" cx="591.17" cy="228.71" r="8.67"/>
			<rect x="602.71" y="253.35" class="st0" width="12.14" height="24.29"/>
		</g>
		<g>
			<path class="st1" d="M747.41,226.5v29.16l10.76,1.46V226.5H747.41z M747.41,252.04c-2.02,1.33-4.13,2.37-6.34,3.12
				c-3.86,1.31-7.87,1.96-12.06,1.96c-4.49,0-8.64-0.75-12.45-2.24c-3.82-1.5-7.13-3.61-9.93-6.34c-2.8-2.73-4.97-5.95-6.51-9.65
				c-1.53-3.7-2.3-7.68-2.3-11.94c0-4.34,0.77-8.36,2.3-12.06c1.54-3.7,3.71-6.9,6.51-9.59c2.8-2.7,6.13-4.79,9.98-6.29
				c3.85-1.49,8.02-2.24,12.51-2.24c4.41,0,8.51,0.73,12.28,2.19c3.78,1.46,7.28,3.76,10.49,6.9l6.96-6.96
				c-3.59-4.04-7.97-7.06-13.13-9.08c-5.16-2.02-10.84-3.03-17.05-3.03c-6.13,0-11.74,0.99-16.82,2.97
				c-5.09,1.98-9.52,4.79-13.3,8.41c-3.77,3.63-6.71,7.87-8.8,12.74c-2.1,4.86-3.14,10.2-3.14,16.04c0,5.83,1.04,11.18,3.14,16.04
				c2.09,4.86,5.01,9.1,8.75,12.73c3.74,3.63,8.15,6.43,13.23,8.41c5.09,1.98,10.66,2.97,16.72,2.97c5.53,0,10.9-0.84,16.09-2.52
				c5.2-1.68,9.74-4.17,13.63-7.46l-6.39-8.53C750.38,249.91,748.92,251.05,747.41,252.04z"/>
			<path class="st1" d="M778.03,206.75v59.46h10.77v-59.46H778.03z M788.63,183.25c-1.39-1.3-3.13-1.96-5.22-1.96
				c-2.09,0-3.83,0.67-5.21,2.02c-1.39,1.35-2.08,3.03-2.08,5.05c0,1.94,0.69,3.59,2.08,4.93c1.38,1.35,3.12,2.02,5.21,2.02
				c2.17,0,3.93-0.69,5.27-2.07c1.35-1.38,2.02-3.09,2.02-5.11C790.7,186.19,790.01,184.56,788.63,183.25z"/>
			<path class="st1" d="M904.95,217.52c-2.06-3.81-4.92-6.65-8.58-8.52c-3.67-1.87-7.89-2.81-12.68-2.81
				c-5.98,0-11.22,1.39-15.7,4.15c-3.01,1.86-5.41,4.12-7.2,6.78c-1.45-2.78-3.42-5.02-5.93-6.72c-4.11-2.8-9.01-4.21-14.69-4.21
				c-5.16,0-9.69,1.09-13.57,3.26c-2.87,1.6-5.19,3.67-6.96,6.2v-8.9h-10.32v59.46h10.77v-30.63c0-4.33,0.75-7.96,2.24-10.88
				c1.5-2.91,3.59-5.12,6.29-6.62c2.69-1.49,5.79-2.24,9.31-2.24c4.93,0,8.73,1.46,11.38,4.38c2.65,2.91,3.98,7.25,3.98,13.01v32.98
				h10.77v-30.63c0-4.33,0.73-7.96,2.19-10.88c1.46-2.91,3.53-5.12,6.22-6.62c2.7-1.49,5.84-2.24,9.43-2.24
				c4.86,0,8.63,1.46,11.33,4.38c2.69,2.91,4.03,7.25,4.03,13.01v32.98h10.77v-34.22C908.03,226.16,907,221.34,904.95,217.52z"/>
			<path class="st1" d="M1023.51,217.52c-2.05-3.81-4.91-6.65-8.58-8.52c-3.66-1.87-7.89-2.81-12.67-2.81
				c-5.99,0-11.22,1.39-15.71,4.15c-3,1.86-5.41,4.12-7.2,6.78c-1.45-2.78-3.42-5.02-5.92-6.72c-4.12-2.8-9.01-4.21-14.7-4.21
				c-5.16,0-9.68,1.09-13.57,3.26c-2.86,1.6-5.18,3.66-6.95,6.19v-8.89h-10.32v59.46h10.77v-30.63c0-4.33,0.74-7.96,2.24-10.88
				c1.49-2.91,3.59-5.12,6.28-6.62c2.69-1.49,5.79-2.24,9.31-2.24c4.94,0,8.73,1.46,11.39,4.38c2.65,2.91,3.98,7.25,3.98,13.01
				v32.98h10.77v-30.63c0-4.33,0.73-7.96,2.18-10.88c1.46-2.91,3.54-5.12,6.23-6.62c2.69-1.49,5.83-2.24,9.42-2.24
				c4.86,0,8.64,1.46,11.33,4.38c2.69,2.91,4.04,7.25,4.04,13.01v32.98h10.77v-34.22C1026.6,226.16,1025.57,221.34,1023.51,217.52z"
				/>
			<path class="st1" d="M1066.85,254.26l-20.73-47.51h-11.22l26.23,59.31l0.91,2.05l7.18-8.41L1066.85,254.26z M1087.4,206.75
				l-20.55,47.51l-2.79,6.45l-1.12,1.35l-1.81,4l-1.89,4.18c-1.5,3.44-3.1,5.84-4.82,7.18c-1.72,1.35-3.89,2.02-6.51,2.02
				c-2.02,0-3.93-0.37-5.72-1.12c-1.79-0.75-3.44-1.83-4.94-3.25l-4.59,8.07c1.94,1.8,4.26,3.16,6.95,4.1
				c2.69,0.93,5.46,1.4,8.3,1.4c3.07,0,5.87-0.5,8.41-1.51s4.88-2.72,7.01-5.11c2.14-2.39,4.06-5.68,5.78-9.87l28.83-65.4H1087.4z"
				/>
		</g>
	</g>
	<g>
		<g>
			<g>
				<g>
					<path class="st2" d="M1135.72,966.95c-10.44,0-18.91,8.47-18.91,18.92c0,10.45,8.47,18.92,18.91,18.92h20.81v-37.84H1135.72z
						 M1132.99,993.85c-4.41,0-7.99-3.57-7.99-7.98c0-4.41,3.58-7.99,7.99-7.99c4.41,0,7.98,3.58,7.98,7.99
						C1140.97,990.28,1137.4,993.85,1132.99,993.85z"/>
					<path class="st2" d="M1113.09,981.32h-4.34c-2.51,0-4.55,2.04-4.55,4.55s2.04,4.55,4.55,4.55h4.34
						c-0.45-1.44-0.69-2.97-0.69-4.55C1112.4,984.29,1112.64,982.76,1113.09,981.32z"/>
					<path class="st2" d="M1138.09,985.87c0-2.81-2.29-5.1-5.1-5.1c-2.81,0-5.09,2.29-5.09,5.1c0,2.81,2.28,5.1,5.09,5.1
						C1135.8,990.97,1138.09,988.68,1138.09,985.87z"/>
				</g>
				<g>
					<path class="st2" d="M1158.68,976.88v-3.52c0-0.04,0.04-0.08,0.08-0.08h15.1c1.02,0,1.84,0.82,1.84,1.84l0,0
						c0,1.02-0.82,1.84-1.84,1.84h-15.1C1158.72,976.96,1158.68,976.93,1158.68,976.88z"/>
					<path class="st2" d="M1158.68,998.37v-3.52c0-0.04,0.04-0.08,0.08-0.08h15.1c1.02,0,1.84,0.82,1.84,1.84l0,0
						c0,1.02-0.82,1.84-1.84,1.84h-15.1C1158.72,998.45,1158.68,998.42,1158.68,998.37z"/>
				</g>
			</g>
			<g>
				<g>
					<path class="st2" d="M1208.9,966.95h-20.8v37.84h20.8c10.45,0,18.91-8.47,18.91-18.92
						C1227.81,975.42,1219.35,966.95,1208.9,966.95z M1211.64,993.85c-4.42,0-7.99-3.57-7.99-7.98c0-4.41,3.57-7.99,7.99-7.99
						c4.41,0,7.98,3.58,7.98,7.99C1219.62,990.28,1216.05,993.85,1211.64,993.85z"/>
					<path class="st2" d="M1231.54,990.42h4.34c2.51,0,4.55-2.04,4.55-4.55s-2.04-4.55-4.55-4.55h-4.34
						c0.45,1.44,0.69,2.97,0.69,4.55C1232.22,987.45,1231.99,988.98,1231.54,990.42z"/>
					<path class="st2" d="M1206.54,985.87c0,2.81,2.29,5.1,5.1,5.1c2.81,0,5.09-2.29,5.09-5.1c0-2.81-2.28-5.1-5.09-5.1
						C1208.82,980.77,1206.54,983.06,1206.54,985.87z"/>
				</g>
			</g>
		</g>
	</g>
	<g>
		<g>
			<path class="st1" d="M277.76,915.34h-42.64c1.75,2.84,3.21,5.89,4.3,9.1h38.34c2.57,0,4.68,2.11,4.68,4.69v21.47h9.1v-21.47
				C291.54,921.53,285.36,915.34,277.76,915.34z M282.44,1020.68v14.45c0,2.59-2.11,4.68-4.68,4.68h-13.13v0.71H255v-0.71h-4.61
				v0.71h-9.65v-0.71h-4.6v0.71h-9.64v-0.71h-98.91c-2.59,0-4.68-2.09-4.68-4.68v-106c0-2.58,2.09-4.69,4.68-4.69h18.87
				c2.04-3.35,4.5-6.4,7.32-9.1h-26.19c-7.59,0-13.78,6.19-13.78,13.79v106c0,7.59,6.19,13.78,13.78,13.78h150.17
				c7.6,0,13.78-6.19,13.78-13.78v-14.45H282.44z"/>
			<path class="st1" d="M118.36,1029.1v13.12h167.02v-13.12H118.36z M236.14,1040.52h-9.64v-4.28h9.64V1040.52z M250.39,1040.52
				h-9.65v-4.28h9.65V1040.52z M264.63,1040.52H255v-4.28h9.63V1040.52z"/>
			<g>
				<rect x="170.55" y="1068.32" class="st1" width="62.63" height="16.46"/>
				<rect x="188.22" y="1055.34" class="st1" width="27.3" height="22.35"/>
				<path class="st1" d="M188.22,1055.34c0,0-1.07,12.98-17.67,12.98h31.32v-12.98H188.22z"/>
				<path class="st1" d="M215.52,1055.34c0,0,1.07,12.98,17.67,12.98h-31.32v-12.98H215.52z"/>
			</g>
			<rect x="135.67" y="994.6" class="st1" width="22.73" height="4.94"/>
			<rect x="135.67" y="1004.76" class="st1" width="22.73" height="4.94"/>
			<path class="st1" d="M235.19,939.8H195.3v-39.86c19.77,0,36.18,14.36,39.32,33.22C235.01,935.31,235.19,937.52,235.19,939.8z"/>
			<path class="st1" d="M186.2,948.9h39.88c0,22.05-17.84,39.88-39.88,39.88c-22.02,0-39.88-17.84-39.88-39.88
				c0-22.02,17.86-39.86,39.88-39.86V948.9z"/>
			<g>
				<rect x="228.2" y="982.13" class="st1" width="15.26" height="21.49"/>
				<rect x="254.1" y="970.69" class="st1" width="15.26" height="32.92"/>
				<rect x="280" y="957.44" class="st1" width="15.26" height="46.17"/>
				<rect x="222.78" y="1008.63" class="st1" width="78.09" height="5.22"/>
			</g>
		</g>
		<g>
			<path class="st1" d="M284.85,1248.25v60.97c-2.25-0.82-4.62-1.41-7.08-1.68v-59.29H284.85z"/>
			<path class="st1" d="M420.75,1350.22v7.05H298.21c1.73-2.14,3.16-4.51,4.25-7.05H420.75z"/>
			<rect x="306.19" y="1320.78" class="st1" width="5.35" height="34.26"/>
			<rect x="327.87" y="1294.28" class="st1" width="17.4" height="59.47"/>
			<rect x="359.72" y="1306.06" class="st1" width="17.4" height="47.7"/>
			<rect x="391.58" y="1271.9" class="st1" width="17.4" height="81.86"/>
			<polygon class="st1" points="301.19,1296.06 298.35,1292.51 336.25,1262.18 367.95,1276.83 398.68,1246.62 401.87,1249.87 
				368.9,1282.29 336.89,1267.49 			"/>
			<polygon class="st1" points="399.74,1257.71 399.63,1248.91 391.58,1248.91 391.58,1244.36 404.13,1244.36 404.29,1257.65 			"/>
			<g>
				<path class="st1" d="M273.89,1438.77l-22.32-47.18c-0.82-1.78-2.94-2.53-4.71-1.69l-9.08,4.28c-1.78,0.84-2.53,2.96-1.69,4.73
					l22.32,47.19c0.82,1.75,2.94,2.52,4.71,1.68l9.08-4.3C273.98,1442.64,274.73,1440.55,273.89,1438.77z M246.83,1406.6l-1.98,0.94
					c-0.66,0.31-1.43,0.02-1.75-0.64l-2.96-6.24c-0.29-0.66-0.02-1.45,0.64-1.75l1.96-0.93c0.66-0.32,1.45-0.02,1.77,0.64l2.94,6.23
					C247.77,1405.51,247.49,1406.28,246.83,1406.6z"/>
				<path class="st1" d="M398.13,1385.28c1.04,0.46,1.26,1.85,0.39,2.59c-8.41,7.22-44.94,38.16-60.75,44.53
					c-17.93,7.23-30.25-8.83-63.44-9.9l-12.05-25.7c0,0,14.45-16.33,31.58-16.86c17.13-0.54,26.23,11.24,42.69,12.85
					c0,0,4.68,14.99-32.25,5.89c0,0-2.01,11.78,26.97,11.78C359.36,1410.45,376.06,1375.53,398.13,1385.28z"/>
			</g>
			<path class="st1" d="M272.41,1328.36v6.87c-1.82-0.64-3.09-1.59-3.09-3.46C269.31,1329.75,270.59,1328.63,272.41,1328.36z"/>
			<path class="st1" d="M278.19,1344.26c0,1.8-1.21,3.19-3.23,3.55v-6.96C276.82,1341.49,278.19,1342.4,278.19,1344.26z"/>
			<path class="st1" d="M274.23,1311.89c-14.47,0-26.19,11.71-26.19,26.18s11.72,26.21,26.19,26.21c14.47,0,26.21-11.74,26.21-26.21
				S288.7,1311.89,274.23,1311.89z M274.95,1352.25v3.23h-2.54v-3.25c-5.12-0.46-8.79-3.19-8.9-7.97h5.96
				c0.16,1.82,1.12,3.07,2.94,3.46v-7.6c-4.1-1.02-8.9-2.18-8.9-8.08c0-4.68,3.73-7.73,8.9-8.14v-3.21h2.54v3.21
				c4.99,0.41,8.31,3.07,8.67,7.8h-6c-0.16-1.54-1.12-2.75-2.67-3.23v7.51c4.15,1.09,8.99,2.16,8.99,8.06
				C283.94,1348.08,280.76,1351.86,274.95,1352.25z"/>
		</g>
		<g>
			<polygon class="st1" points="936.47,1574.68 695.44,1574.68 695.44,1410.74 699.99,1410.74 699.99,1570.13 936.47,1570.13 			"/>
			<rect x="725.15" y="1527.17" class="st1" width="4.55" height="45.23"/>
			<rect x="749.24" y="1509.24" class="st1" width="4.55" height="63.17"/>
			<rect x="773.33" y="1493.45" class="st1" width="4.55" height="78.96"/>
			<rect x="797.42" y="1478.59" class="st1" width="4.55" height="93.82"/>
			<rect x="821.51" y="1509.24" class="st1" width="4.55" height="63.17"/>
			<rect x="845.6" y="1489.03" class="st1" width="4.55" height="83.38"/>
			<rect x="869.69" y="1472.57" class="st1" width="4.55" height="99.84"/>
			<rect x="893.78" y="1464.54" class="st1" width="4.55" height="107.87"/>
			<rect x="917.87" y="1446.07" class="st1" width="4.55" height="126.34"/>
			<polygon class="st1" points="728.62,1490.96 726.23,1487.1 805.43,1437.97 817.85,1456.09 906.55,1411.7 908.59,1415.77 
				816.34,1461.93 804.13,1444.13 			"/>
			<polygon class="st1" points="910.58,1422.98 906.03,1422.98 906.03,1412.87 895.91,1412.21 896.21,1407.67 910.58,1408.61 			"/>
		</g>
		<g>
			<g>
				<path class="st1" d="M1341.59,1446.33c-0.46-8.01-3.15-15.43-7.46-21.65c-0.94-1.35-1.95-2.64-3.03-3.87
					c-5.16-5.86-11.9-10.28-19.56-12.59c-3.86-1.17-7.97-1.8-12.21-1.8s-8.35,0.63-12.22,1.8c-6.86,2.07-12.98,5.83-17.9,10.81
					c-1.14,1.16-2.23,2.39-3.23,3.68c-5.16,6.59-8.41,14.74-8.92,23.62c-0.05,0.8-0.07,1.61-0.07,2.43v2.45h84.67v-2.45
					C1341.66,1447.94,1341.64,1447.13,1341.59,1446.33z M1261.96,1446.31c1.26-19.51,17.54-35,37.37-35c19.82,0,36.1,15.49,37.36,35
					H1261.96z"/>
				<path class="st1" d="M1299.33,1359.86c-14.19,0-25.73,11.54-25.73,25.73c0,9.76,5.47,18.28,13.51,22.63
					c3.64,1.97,7.8,3.09,12.22,3.09c4.42,0,8.57-1.12,12.21-3.09c8.04-4.35,13.51-12.87,13.51-22.63
					C1325.05,1371.4,1313.51,1359.86,1299.33,1359.86z M1299.33,1406.42c-11.49,0-20.84-9.34-20.84-20.83s9.35-20.84,20.84-20.84
					c11.48,0,20.83,9.35,20.83,20.84S1310.81,1406.42,1299.33,1406.42z"/>
				<path class="st1" d="M1395.77,1451.22h-74.32v-4.89h69.34c-1.26-17.33-15.75-31.05-33.39-31.05c-9.33,0-18.32,3.95-24.66,10.84
					l-3.6-3.31c7.26-7.89,17.56-12.41,28.26-12.41c21.16,0,38.37,17.22,38.37,38.39V1451.22z"/>
				<path class="st1" d="M1357.39,1368.42c-12.92,0-23.43,10.51-23.43,23.43c0,8.7,4.77,16.31,11.84,20.34
					c3.42,1.96,7.38,3.08,11.59,3.08c4.22,0,8.18-1.12,11.6-3.09h0.01c7.05-4.05,11.81-11.64,11.81-20.33
					C1380.81,1378.93,1370.3,1368.42,1357.39,1368.42z M1357.39,1410.37c-10.22,0-18.53-8.31-18.53-18.52
					c0-10.22,8.31-18.53,18.53-18.53c10.21,0,18.52,8.31,18.52,18.53C1375.91,1402.06,1367.6,1410.37,1357.39,1410.37z"/>
				<path class="st1" d="M1280.9,1451.22h-74.32v-2.45c0-21.17,17.22-38.39,38.39-38.39c9.72,0,18.99,3.64,26.08,10.26l-3.33,3.58
					c-6.19-5.77-14.26-8.94-22.75-8.94c-17.65,0-32.16,13.72-33.41,31.05h69.34V1451.22z"/>
				<path class="st1" d="M1244.97,1368.42c-12.91,0-23.42,10.51-23.42,23.43c0,8.69,4.76,16.29,11.82,20.33
					c3.42,1.97,7.38,3.09,11.6,3.09h0.01c4.22,0,8.18-1.13,11.6-3.1c7.05-4.03,11.81-11.63,11.81-20.32
					C1268.39,1378.93,1257.89,1368.42,1244.97,1368.42z M1244.97,1410.37c-10.22,0-18.53-8.31-18.53-18.52
					c0-10.22,8.31-18.53,18.53-18.53s18.53,8.31,18.53,18.53C1263.5,1402.06,1255.19,1410.37,1244.97,1410.37z"/>
			</g>
			<path class="st1" d="M1353.04,1295.46c-0.2-3.3-0.73-6.52-1.56-9.62c-5.58-20.91-24.65-36.46-47.26-36.61h-0.34
				c-23.07,0-42.48,15.94-47.8,37.39c-0.94,3.79-1.44,7.76-1.44,11.85c0,5.04,0.76,9.98,2.23,14.68c2.11,6.8,5.7,13.09,10.6,18.45
				v34.01l20.52-20.52c5.08,1.74,10.42,2.63,15.89,2.63c21.76,0,40.26-14.18,46.76-33.78c1.02-3.06,1.74-6.25,2.13-9.54
				c0.24-1.94,0.36-3.92,0.36-5.93C1353.13,1297.46,1353.1,1296.45,1353.04,1295.46z M1303.88,1343.19
				c-5.42,0-10.69-0.95-15.67-2.83l-1.37-0.52l-14.85,14.85v-24.88l-0.62-0.65c-7.87-8.31-12.21-19.2-12.21-30.69
				c0-24.66,20.06-44.72,44.72-44.72h0.32c23.41,0.16,42.64,18.51,44.28,41.53c0.08,1.05,0.12,2.12,0.12,3.19
				c0,1.99-0.13,3.96-0.39,5.88C1345.33,1326.24,1326.55,1343.19,1303.88,1343.19z"/>
			<path class="st1" d="M1382.52,1266.56h-0.23c-13.52,0-25.24,7.87-30.81,19.28c-1.43,2.93-2.46,6.11-3,9.44
				c-0.3,1.8-0.45,3.65-0.45,5.54c0,1.19,0.06,2.37,0.18,3.53c0.34,3.32,1.16,6.55,2.43,9.59c1.45,3.53,3.52,6.82,6.13,9.72v24.62
				l14.89-14.89c3.41,1.12,6.98,1.69,10.63,1.69c18.89,0,34.26-15.37,34.26-34.26C1416.55,1282.05,1401.29,1266.68,1382.52,1266.56z
				 M1382.29,1330.55c-3.6,0-7.11-0.63-10.42-1.88l-1.37-0.52l-9.21,9.22v-15.5l-0.62-0.65c-4.4-4.65-7.15-10.52-7.9-16.82
				c-0.15-1.18-0.22-2.38-0.22-3.58c0-1.83,0.17-3.62,0.49-5.36c2.53-13.85,14.69-24.38,29.32-24.38h0.14
				c16.28,0.11,29.53,13.45,29.53,29.74C1412.03,1317.21,1398.69,1330.55,1382.29,1330.55z"/>
			<path class="st1" d="M1256.08,1286.62c-5.41-11.82-17.35-20.06-31.18-20.06h-0.23c-18.77,0.12-34.03,15.49-34.03,34.26
				c0,18.89,15.37,34.26,34.26,34.26c3.65,0,7.22-0.57,10.63-1.69l14.89,14.89v-24.62c2.8-3.12,4.97-6.68,6.45-10.51
				c1.5-3.89,2.29-8.06,2.29-12.33C1259.16,1295.76,1258.06,1290.95,1256.08,1286.62z M1246.52,1321.22l-0.62,0.65v15.5l-9.21-9.22
				l-1.37,0.52c-3.31,1.25-6.82,1.88-10.42,1.88c-16.4,0-29.74-13.34-29.74-29.73c0-16.29,13.25-29.63,29.67-29.74l0.07-2.26v2.26
				c16.4,0,29.74,13.34,29.74,29.74C1254.64,1308.45,1251.76,1315.7,1246.52,1321.22z"/>
			<rect x="1367.57" y="1288.18" class="st1" width="29.44" height="4.52"/>
			<rect x="1367.57" y="1297.81" class="st1" width="29.44" height="4.52"/>
			<rect x="1367.57" y="1307.45" class="st1" width="29.44" height="4.52"/>
			<path class="st1" d="M1244.78,1286.92c-2.41-2.43-5.62-3.76-9.03-3.76c-0.01,0-0.01,0-0.01,0c-3.41,0-6.62,1.33-9.03,3.75
				c0,0-0.48,0.49-1.04,1.04l-1.04-1.04c-2.42-2.42-5.63-3.75-9.02-3.75c-3.4,0-6.61,1.33-9.03,3.75c-2.41,2.41-3.74,5.62-3.74,9.02
				c0,3.41,1.33,6.62,3.74,9.03l19.1,19.09l19.1-19.09c2.41-2.41,3.73-5.61,3.73-9.03
				C1248.51,1292.52,1247.18,1289.32,1244.78,1286.92z M1241.58,1301.76l-15.9,15.9l-15.9-15.9c-1.56-1.55-2.41-3.62-2.41-5.83
				c0-2.2,0.85-4.26,2.41-5.82c1.57-1.57,3.64-2.43,5.83-2.43c2.19,0,4.25,0.86,5.83,2.44l4.26,4.21l4.21-4.22
				c0.78-0.78,1.69-1.39,2.67-1.8c0.99-0.42,2.06-0.63,3.16-0.63c2.21,0,4.28,0.86,5.84,2.43c1.55,1.55,2.41,3.62,2.41,5.82
				C1243.99,1298.14,1243.13,1300.21,1241.58,1301.76z"/>
			<g>
				<path class="st1" d="M1334.29,1292.67c-0.82-2.37-2.87-4.09-5.47-4.61c-1.41-0.28-2.85-0.32-4.07-0.32h-0.97
					c-2.46,0.03-4.98,0.19-7.31,0.33c-0.17,0-0.24-0.03-0.25-0.03c-0.01-0.01-0.04-0.09-0.04-0.29c0.02-0.95,0.04-1.93,0.23-2.82
					c0.28-1.34,0.6-2.67,0.92-4c0.4-1.67,0.79-3.34,1.13-5.02c0.62-3.09-0.1-5.63-2.14-7.53c-0.98-0.91-2.19-1.41-3.39-1.41
					c-1.37,0-2.65,0.62-3.63,1.76c-0.63,0.74-1.05,1.6-1.46,2.44l-0.16,0.33c-0.45,0.93-0.89,1.88-1.32,2.82
					c-0.79,1.72-1.61,3.5-2.55,5.14c-2.13,3.69-4.8,6.33-8.16,8.08c-2.22,1.15-3.39,3.22-3.39,5.97l-0.01,4.14
					c0,5.41-0.01,10.82,0.01,16.23c0.02,4.1,2.81,6.86,6.95,6.87h11.95l0.88-0.02h11.6c3.49-0.02,5.84-2.06,6.28-5.46
					c0.06-0.46,0.04-0.93,0.01-1.4c-0.02-0.36-0.05-0.72,0-1.07l0.09-0.71c0.08-0.82,0.17-1.66,0.51-2.1
					c1.59-2.06,2.09-4.35,1.55-7.18c-0.21-1.11,0.05-2.1,0.76-2.94C1334.6,1297.79,1335.14,1295.1,1334.29,1292.67z
					 M1330.23,1297.25c-1.62,1.89-2.19,4.13-1.7,6.66c0.29,1.5,0.04,2.61-0.81,3.62c-1.39,1.65-1.51,3.66-1.47,5.21
					c0.01,0.22,0.03,0.44,0.05,0.66c0.02,0.22,0.04,0.44,0.04,0.66c-0.01,2.15-0.84,2.99-2.98,3.01c-1.62,0.01-3.24,0.01-4.86,0.01
					l-7.3-0.01l-0.91,0.03h-10.94c-2.24,0-3.43-1.17-3.43-3.39v-6.87c0.01-4.36,0.01-8.72-0.01-13.09c0-1.57,0.59-2.55,1.98-3.28
					c3.82-2,6.94-5.23,9.54-9.89c0.91-1.62,1.68-3.34,2.42-5c0.38-0.85,0.76-1.7,1.16-2.54l0.12-0.25c0.29-0.61,0.56-1.19,0.93-1.64
					c0.27-0.34,0.56-0.51,0.86-0.51c0.28,0,0.59,0.15,0.9,0.43c0.83,0.76,1.22,1.69,1.14,2.69c-0.1,1.24-0.36,2.52-0.62,3.76
					l-0.11,0.52c-0.29,1.41-0.6,2.83-0.9,4.24c-0.25,1.12-0.49,2.24-0.73,3.37c-0.11,0.53-0.12,1.08-0.11,1.54
					c0.04,3.06,1.37,4.55,4.08,4.55c0.15,0,0.31,0,0.47-0.01c3.06-0.16,6.13-0.28,9.41-0.34c1.38,0,2.4,0.3,3.23,0.95
					c0.72,0.56,1.19,1.45,1.29,2.42C1331.06,1295.69,1330.79,1296.6,1330.23,1297.25z"/>
				<path class="st1" d="M1290.34,1291.89c-0.01-2.17-1.38-3.6-3.5-3.64c-1.18-0.02-2.36-0.03-3.55-0.03c-1.15,0-2.3,0.01-3.46,0.03
					c-2.11,0.05-3.53,1.51-3.53,3.65c-0.01,8.39-0.01,16.77,0,25.16c0,2.22,1.46,3.67,3.7,3.69h6.46c2.54-0.01,3.88-1.36,3.89-3.9
					v-16.3C1290.35,1297.66,1290.35,1294.78,1290.34,1291.89z M1286.69,1316.65c0,0.2,0,0.34-0.01,0.44
					c-0.1,0.01-0.25,0.01-0.46,0.01l-3.45-0.01c-0.8,0-1.59,0.01-2.45,0.03c-0.21,0-0.31-0.03-0.33-0.03c0,0,0,0-0.01,0.01
					c-0.01-0.04-0.04-0.14-0.04-0.39c0.02-8.14,0.02-16.27,0-24.41c0-0.28,0.04-0.38,0.04-0.38c0.02-0.02,0.11-0.05,0.35-0.05v-0.9
					l0.05,0.9c0.77,0.02,1.53,0.02,2.29,0.02l3.55-0.01c0.22,0,0.36,0.01,0.46,0.02c0.01,0.09,0.01,0.23,0.01,0.45V1316.65z"/>
			</g>
		</g>
		<g>
			<g>
				<g>
					<circle class="st1" cx="1303.24" cy="1072.29" r="13.58"/>
					<path class="st1" d="M1324.37,1105.94h-42.3c3.82-7.83,11.88-13.24,21.16-13.24
						C1312.52,1092.7,1320.55,1098.12,1324.37,1105.94z"/>
					<path class="st1" d="M1339.12,1047.47v53.24c0,2.89-2.34,5.23-5.23,5.23h-2.12c-2.8-7.78-8.69-14.08-16.18-17.43
						c4.89-3.73,8.05-9.6,8.05-16.22c0-11.24-9.17-20.41-20.41-20.41c-11.26,0-20.41,9.17-20.41,20.41c0,6.62,3.16,12.49,8.03,16.22
						c-7.49,3.37-13.38,9.67-16.18,17.43h-2.12c-2.87,0-5.21-2.34-5.21-5.23v-53.24c0-2.89,2.34-5.23,5.21-5.23h61.32
						C1336.77,1042.24,1339.12,1044.58,1339.12,1047.47z"/>
					<circle class="st1" cx="1433.86" cy="1072.29" r="13.58"/>
					<path class="st1" d="M1455,1105.94h-42.3c3.82-7.83,11.88-13.24,21.16-13.24S1451.17,1098.12,1455,1105.94z"/>
					<path class="st1" d="M1469.74,1047.47v53.24c0,2.89-2.34,5.23-5.23,5.23h-2.12c-2.8-7.78-8.69-14.08-16.18-17.43
						c4.89-3.73,8.05-9.6,8.05-16.22c0-11.24-9.17-20.41-20.41-20.41c-11.26,0-20.41,9.17-20.41,20.41c0,6.62,3.16,12.49,8.03,16.22
						c-7.49,3.37-13.38,9.67-16.18,17.43h-2.12c-2.87,0-5.21-2.34-5.21-5.23v-53.24c0-2.89,2.34-5.23,5.21-5.23h61.32
						C1467.4,1042.24,1469.74,1044.58,1469.74,1047.47z"/>
				</g>
				<path class="st1" d="M1474.54,1027.38h-29.58v-0.03c0-11.5-9.35-20.85-20.85-20.85h-44.99v-13.11h71.57
					c10.79,0,19.57-8.78,19.57-19.57v-65.53c0-10.78-8.78-19.56-19.57-19.56H1286.4c-10.79,0-19.56,8.78-19.56,19.56v65.53
					c0,10.79,8.77,19.57,19.56,19.57h73.71v13.11h-48.74c-11.5,0-20.85,9.36-20.85,20.86l-27.98,0.02
					c-6.41,0-11.63,5.22-11.63,11.65v70.12c0,6.42,5.22,11.65,11.63,11.65h81.38c6.42,0,11.65-5.23,11.65-11.65v-70.12
					c0-6.43-5.23-11.65-11.65-11.65c0,0-23.74,0-31.32,0v-1.36c0-0.87,0.71-1.58,1.59-1.58h107.53c0.87,0,1.58,0.71,1.58,1.58v1.36
					h-30.12c-6.43,0-11.65,5.22-11.65,11.65v70.12c0,6.42,5.22,11.65,11.65,11.65h81.36c6.42,0,11.65-5.23,11.65-11.65v-70.12
					C1486.19,1032.6,1480.96,1027.38,1474.54,1027.38z M1481.64,1109.15c0,3.91-3.19,7.1-7.1,7.1h-81.36c-3.92,0-7.1-3.19-7.1-7.1
					v-70.12c0-3.92,3.18-7.1,7.1-7.1h34.61l0.06-2.21v-3.7c0-3.38-2.75-6.14-6.13-6.14h-107.53c-3.38,0-6.14,2.76-6.14,6.14v5.92
					l2.28-0.01c0.69,0,33.59,0,33.59,0c3.91,0,7.1,3.18,7.1,7.1v70.12c0,3.91-3.19,7.1-7.1,7.1h-81.38c-3.91,0-7.08-3.19-7.08-7.1
					v-70.12c0-3.92,3.17-7.1,7.08-7.1h32.53v-4.57c0-8.99,7.31-16.31,16.3-16.31h53.29v-22.21h-78.26
					c-8.28,0-15.01-6.74-15.01-15.02v-65.53c0-8.27,6.73-15.01,15.01-15.01h164.29c8.28,0,15.02,6.74,15.02,15.01v65.53
					c0,8.28-6.74,15.02-15.02,15.02h-76.12v22.21h49.54c8.99,0,16.3,7.31,16.3,16.3v4.58h34.13c3.91,0,7.1,3.18,7.1,7.1V1109.15z"/>
			</g>
			<path class="st1" d="M1365.9,926.77h-7.24v12.65h7.24c4.8,0,6.96-2.53,6.96-6.42C1372.86,929.18,1370.7,926.77,1365.9,926.77z
				 M1365.9,926.77h-7.24v12.65h7.24c4.8,0,6.96-2.53,6.96-6.42C1372.86,929.18,1370.7,926.77,1365.9,926.77z M1365.9,926.77h-7.24
				v12.65h7.24c4.8,0,6.96-2.53,6.96-6.42C1372.86,929.18,1370.7,926.77,1365.9,926.77z M1365.9,926.77h-7.24v12.65h7.24
				c4.8,0,6.96-2.53,6.96-6.42C1372.86,929.18,1370.7,926.77,1365.9,926.77z M1448.24,906.93h-159.4c-2.1,0-3.8,1.71-3.8,3.82v60.61
				c0,2.1,1.7,3.83,3.8,3.83h159.4c2.11,0,3.82-1.71,3.82-3.83v-60.61C1452.06,908.64,1450.35,906.93,1448.24,906.93z
				 M1322.31,955.35c4.61,0,8.32-2.03,10.37-6.24h9.94c-2.91,8.9-10.69,13.95-20.27,13.95c-12.4,0-21.84-9.06-21.84-21.98
				c0-12.9,9.44-22.05,21.84-22.05c9.58,0,17.36,5.15,20.27,13.97h-9.94c-2.05-4.14-5.76-6.19-10.37-6.19
				c-7.54,0-12.93,5.51-12.93,14.27C1309.38,949.79,1314.77,955.35,1322.31,955.35z M1372.25,962.69l-9.51-16.79h-4.08v16.79h-8.64
				V919.6h16.17c10.38,0,15.57,5.99,15.57,13.22c0,5.23-2.89,10.56-9.81,12.4l10.31,17.47H1372.25z M1436.59,962.69h-8.65v-28.03
				l-11.53,28.03h-6.56l-11.6-28.03v28.03h-8.64V919.6h9.8l13.72,32.04l13.7-32.04h9.76V962.69z M1365.9,926.77h-7.24v12.65h7.24
				c4.8,0,6.96-2.53,6.96-6.42C1372.86,929.18,1370.7,926.77,1365.9,926.77z M1365.9,926.77h-7.24v12.65h7.24
				c4.8,0,6.96-2.53,6.96-6.42C1372.86,929.18,1370.7,926.77,1365.9,926.77z M1365.9,926.77h-7.24v12.65h7.24
				c4.8,0,6.96-2.53,6.96-6.42C1372.86,929.18,1370.7,926.77,1365.9,926.77z M1365.9,926.77h-7.24v12.65h7.24
				c4.8,0,6.96-2.53,6.96-6.42C1372.86,929.18,1370.7,926.77,1365.9,926.77z M1365.9,926.77h-7.24v12.65h7.24
				c4.8,0,6.96-2.53,6.96-6.42C1372.86,929.18,1370.7,926.77,1365.9,926.77z"/>
		</g>
	</g>
	<g>
		<polygon class="st2" points="759.11,972.79 768.16,998.95 750.07,998.95 		"/>
		<path class="st2" d="M819.89,968.58h-9.94v18.19h9.94c7.08,0,10.22-3.5,10.22-9.06C830.11,971.98,826.97,968.58,819.89,968.58z
			 M819.89,968.58h-9.94v18.19h9.94c7.08,0,10.22-3.5,10.22-9.06C830.11,971.98,826.97,968.58,819.89,968.58z M899.4,971.07
			c-3.14-17.5-10.6-33.5-21.23-46.87c-6.19-7.76-13.47-14.66-21.57-20.43c-13.44-9.56-29.21-16.04-46.3-18.43
			c-4.84-0.69-9.8-1.05-14.85-1.05s-10.01,0.36-14.86,1.05c-17.09,2.39-32.85,8.87-46.3,18.43c-8.12,5.77-15.38,12.67-21.57,20.45
			c-10.62,13.35-18.09,29.35-21.23,46.85c-1.11,6.12-1.68,12.39-1.68,18.83c0,3.67,0.18,7.31,0.55,10.88
			c1.91,18.61,8.64,35.79,18.95,50.28c5.75,8.1,12.65,15.38,20.43,21.57c14.38,11.42,31.78,19.18,50.85,21.86
			c4.85,0.69,9.81,1.05,14.86,1.05s10.01-0.36,14.85-1.05c19.05-2.68,36.45-10.44,50.83-21.86c7.78-6.19,14.68-13.45,20.45-21.57
			c10.31-14.49,17.05-31.67,18.96-50.28c0.36-3.57,0.54-7.21,0.54-10.88C901.08,983.46,900.51,977.19,899.4,971.07z M775.69,1020.9
			l-4.12-11.91h-24.91l-4.12,11.91h-13.17l22.49-62.63h14.6l22.49,62.63H775.69z M820.43,996.89h-10.48v24.01h-12.54v-62.54h23.02
			c15.05,0,22.58,8.51,22.58,19.35C843.01,987.21,836.56,996.89,820.43,996.89z M864.45,1020.9h-12.54v-62.54h12.54V1020.9z
			 M819.89,968.58h-9.94v18.19h9.94c7.08,0,10.22-3.5,10.22-9.06C830.11,971.98,826.97,968.58,819.89,968.58z"/>
		<path class="st2" d="M938.49,971.07c-3.69-28.08-15.45-53.63-32.95-74.24l27.3-27.31l-21-21l-27.71,27.72
			c-20.79-16.32-46.16-27.01-73.83-29.83v-39.95h-29.71v39.95c-27.67,2.82-53.04,13.51-73.85,29.8l-27.69-27.69l-21.02,21
			l27.3,27.31c-17.48,20.61-29.24,46.16-32.92,74.24h-36.43v29.71h35.61c2.18,29.24,13.1,56.04,30.14,77.83l-23.7,23.71l21.02,21.02
			l23.3-23.29c21.59,18.26,48.59,30.32,78.24,33.35v31.99h29.71v-31.99c29.65-3.03,56.66-15.09,78.22-33.38l23.32,23.32l21-21.02
			l-23.7-23.71c17.06-21.79,27.98-48.59,30.17-77.83h35.6v-29.71H938.49z M925.61,1000.78c-2.09,25.46-11.56,48.87-26.19,68.12
			c-6.03,7.92-12.92,15.11-20.57,21.45c-19.04,15.84-42.66,26.39-68.55,29.33c-4.87,0.55-9.83,0.84-14.85,0.84
			c-5.03,0-9.99-0.29-14.86-0.84c-25.89-2.94-49.51-13.49-68.55-29.33c-7.65-6.34-14.56-13.56-20.57-21.47
			c-14.65-19.25-24.09-42.64-26.19-68.1c-0.29-3.57-0.45-7.21-0.45-10.88c0-6.39,0.45-12.69,1.36-18.83
			c3.53-24.35,13.79-46.51,28.81-64.57c6.34-7.65,13.56-14.54,21.45-20.57c18.23-13.88,40.2-23.07,64.14-25.8
			c4.87-0.55,9.83-0.84,14.86-0.84c5.02,0,9.98,0.29,14.85,0.84c23.92,2.73,45.89,11.92,64.12,25.8
			c7.92,6.03,15.1,12.92,21.45,20.57c15.04,18.06,25.3,40.22,28.83,64.57c0.91,6.14,1.36,12.44,1.36,18.83
			C926.06,993.57,925.9,997.21,925.61,1000.78z"/>
	</g>
	<g>
		<g>
			<path class="st2" d="M854.74,793.52c0,3.62-2.33,6.81-5.79,7.87c-12.73,3.91-29.96,7.67-50.5,8.01
				c-23.37,0.38-42.78-3.8-56.53-8.02c-3.45-1.06-5.76-4.25-5.76-7.86v-16.08c13.88,4.44,34.59,9.34,60.02,9.25
				c24.71-0.09,44.88-4.87,58.56-9.25V793.52z"/>
			<path class="st2" d="M854.74,766.09c-13.06,4.49-32.44,9.5-56.29,9.9c-26.85,0.44-48.48-5.15-62.29-9.9c0-7.35,0-14.71,0-22.06
				c13.88,4.44,34.59,9.34,60.02,9.25c24.71-0.09,44.88-4.87,58.56-9.25C854.74,751.38,854.74,758.73,854.74,766.09z"/>
			<path class="st2" d="M854.74,732.67c-13.06,4.49-32.44,9.5-56.29,9.9c-26.85,0.44-48.48-5.15-62.29-9.9c0-7.35,0-14.71,0-22.06
				c13.88,4.44,34.59,9.34,60.02,9.25c24.71-0.09,44.88-4.87,58.56-9.25C854.74,717.96,854.74,725.32,854.74,732.67z"/>
			<ellipse class="st2" cx="795.45" cy="696.98" rx="59.29" ry="11.52"/>
		</g>
	</g>
	<rect x="1003.14" y="981.91" class="st2" width="91.98" height="9.25"/>
	<g>
		<g>
			<g>
				<g>
					<path class="st2" d="M795.57,1263.93c-10.45,0-18.92,8.47-18.92,18.91v20.81h37.83v-20.81
						C814.48,1272.4,806.02,1263.93,795.57,1263.93z M795.57,1288.09c-4.42,0-7.99-3.57-7.99-7.98c0-4.42,3.57-7.99,7.99-7.99
						c4.41,0,7.98,3.57,7.98,7.99C803.55,1284.52,799.98,1288.09,795.57,1288.09z"/>
					<path class="st2" d="M800.12,1260.21v-4.34c0-2.51-2.04-4.55-4.55-4.55s-4.55,2.04-4.55,4.55v4.34
						c1.44-0.45,2.97-0.69,4.55-0.69C797.15,1259.52,798.68,1259.76,800.12,1260.21z"/>
					<path class="st2" d="M795.57,1285.21c2.81,0,5.1-2.29,5.1-5.1c0-2.81-2.29-5.09-5.1-5.09c-2.81,0-5.1,2.28-5.1,5.09
						C790.47,1282.92,792.75,1285.21,795.57,1285.21z"/>
				</g>
				<g>
					<path class="st2" d="M804.55,1305.8h3.52c0.04,0,0.08,0.04,0.08,0.08v15.1c0,1.02-0.82,1.84-1.84,1.84l0,0
						c-1.02,0-1.84-0.82-1.84-1.84v-15.1C804.47,1305.84,804.51,1305.8,804.55,1305.8z"/>
					<path class="st2" d="M783.06,1305.8h3.52c0.04,0,0.08,0.04,0.08,0.08v15.1c0,1.02-0.82,1.84-1.84,1.84l0,0
						c-1.02,0-1.84-0.82-1.84-1.84v-15.1C782.98,1305.84,783.02,1305.8,783.06,1305.8z"/>
				</g>
			</g>
			<g>
				<g>
					<path class="st2" d="M776.65,1335.21v20.81c0,10.44,8.47,18.91,18.92,18.91s18.91-8.47,18.91-18.91v-20.81H776.65z
						 M795.57,1366.74c-4.42,0-7.99-3.57-7.99-7.99c0-4.41,3.57-7.98,7.99-7.98c4.41,0,7.98,3.57,7.98,7.98
						C803.55,1363.17,799.98,1366.74,795.57,1366.74z"/>
					<path class="st2" d="M791.02,1378.66v4.34c0,2.51,2.04,4.55,4.55,4.55s4.55-2.04,4.55-4.55v-4.34
						c-1.44,0.45-2.97,0.69-4.55,0.69C793.98,1379.34,792.45,1379.1,791.02,1378.66z"/>
					<path class="st2" d="M795.57,1353.65c-2.81,0-5.1,2.29-5.1,5.1c0,2.81,2.29,5.09,5.1,5.09c2.81,0,5.1-2.28,5.1-5.09
						C800.67,1355.94,798.38,1353.65,795.57,1353.65z"/>
				</g>
			</g>
		</g>
	</g>
	<rect x="790.27" y="1184.58" class="st2" width="9.25" height="57.66"/>
	<g>
		<g>
			<g>
				<g>
					<path class="st2" d="M455.45,966.95h-20.81v37.84h20.81c10.44,0,18.91-8.47,18.91-18.92
						C474.36,975.42,465.89,966.95,455.45,966.95z M458.18,993.85c-4.41,0-7.98-3.57-7.98-7.98c0-4.41,3.57-7.99,7.98-7.99
						s7.99,3.58,7.99,7.99C466.17,990.28,462.59,993.85,458.18,993.85z"/>
					<path class="st2" d="M478.08,981.32h4.34c2.51,0,4.55,2.04,4.55,4.55s-2.04,4.55-4.55,4.55h-4.34
						c0.45-1.44,0.69-2.97,0.69-4.55C478.77,984.29,478.53,982.76,478.08,981.32z"/>
					<path class="st2" d="M453.08,985.87c0-2.81,2.29-5.1,5.1-5.1c2.81,0,5.09,2.29,5.09,5.1c0,2.81-2.28,5.1-5.09,5.1
						C455.37,990.97,453.08,988.68,453.08,985.87z"/>
				</g>
				<g>
					<path class="st2" d="M432.49,976.88v-3.52c0-0.04-0.04-0.08-0.08-0.08h-15.1c-1.02,0-1.84,0.82-1.84,1.84l0,0
						c0,1.02,0.82,1.84,1.84,1.84h15.1C432.45,976.96,432.49,976.93,432.49,976.88z"/>
					<path class="st2" d="M432.49,998.37v-3.52c0-0.04-0.04-0.08-0.08-0.08h-15.1c-1.02,0-1.84,0.82-1.84,1.84l0,0
						c0,1.02,0.82,1.84,1.84,1.84h15.1C432.45,998.45,432.49,998.42,432.49,998.37z"/>
				</g>
			</g>
			<g>
				<g>
					<path class="st2" d="M382.27,966.95c-10.44,0-18.91,8.47-18.91,18.92c0,10.45,8.47,18.92,18.91,18.92h20.81v-37.84H382.27z
						 M379.53,993.85c-4.41,0-7.98-3.57-7.98-7.98c0-4.41,3.57-7.99,7.98-7.99c4.42,0,7.99,3.58,7.99,7.99
						C387.52,990.28,383.95,993.85,379.53,993.85z"/>
					<path class="st2" d="M359.63,990.42h-4.34c-2.51,0-4.55-2.04-4.55-4.55s2.04-4.55,4.55-4.55h4.34
						c-0.45,1.44-0.69,2.97-0.69,4.55C358.95,987.45,359.19,988.98,359.63,990.42z"/>
					<path class="st2" d="M384.63,985.87c0,2.81-2.29,5.1-5.1,5.1c-2.81,0-5.09-2.29-5.09-5.1c0-2.81,2.28-5.1,5.09-5.1
						C382.35,980.77,384.63,983.06,384.63,985.87z"/>
				</g>
			</g>
		</g>
	</g>
	<rect x="496.05" y="981.91" class="st2" width="91.98" height="9.25"/>
	<g>
		<g>
			<path class="st2" d="M902.78,638.07l-3.47-2.95c20.97-24.67,32.52-56.1,32.52-88.49c0-75.41-61.35-136.76-136.76-136.76
				c-33.71,0-66.1,12.38-91.2,34.85l-3.04-3.39c25.93-23.22,59.4-36.01,94.23-36.01c77.92,0,141.31,63.39,141.31,141.31
				C936.38,580.1,924.45,612.58,902.78,638.07z"/>
			<path class="st2" d="M795.07,687.95c-77.92,0-141.31-63.39-141.31-141.31c0-33.94,12.22-66.75,34.41-92.38l3.44,2.98
				c-21.47,24.81-33.3,56.56-33.3,89.41c0,75.41,61.35,136.76,136.76,136.76c35.09,0,68.47-13.29,93.97-37.42l3.13,3.31
				C865.82,674.22,831.33,687.95,795.07,687.95z"/>
			<polygon class="st2" points="692.17,473.54 687.62,473.54 687.62,456.95 671.39,456.95 671.39,452.4 692.17,452.4 			"/>
			<polygon class="st2" points="921.13,638.9 898.78,638.9 898.78,614.07 903.33,614.07 903.33,634.35 921.13,634.35 			"/>
			<path class="st2" d="M894.97,516.52l10.78-7.38l-5.45-16.76l-13.06,0.36l-6.55-9.03l4.37-12.3l-14.25-10.36l-10.35,7.97
				l-10.61-3.45l-3.69-12.53h-17.62l-3.69,12.53l-10.61,3.45l-10.36-7.97l-14.25,10.36l4.38,12.3l-6.56,9.03l-13.06-0.36
				l-5.44,16.76l10.77,7.38v11.16l-10.77,7.38l5.44,16.76l13.06-0.36l6.56,9.02l-4.38,12.31l14.25,10.35l10.36-7.96l10.61,3.45
				l3.69,12.53h17.62l3.69-12.53l10.61-3.45l10.35,7.96l14.25-10.35l-4.37-12.31l6.55-9.02l13.06,0.36l5.45-16.76l-10.78-7.38
				V516.52z M901.71,536.43l-3.87,11.91l-11.4-0.32l-0.95,0.04l-8.62,11.87l4.12,11.6l-10.12,7.35l-9.75-7.5l-14.04,4.56l-3.47,11.8
				h-12.52l-3.48-11.8l-14.03-4.56l-9.75,7.5l-10.13-7.35l4.13-11.6L789.15,548l-12.3,0.34l-3.87-11.91l10.16-6.95v-14.76
				l-10.16-6.95l3.87-11.9l12.3,0.33l8.68-11.93l-4.13-11.6l10.13-7.35l9.75,7.5l14.03-4.56l3.48-11.8h12.52l3.47,11.8l14.04,4.56
				l9.75-7.5l10.12,7.35l-4.12,11.6l8.67,11.93l12.3-0.33l3.87,11.9l-10.15,6.95v14.76L901.71,536.43z"/>
			<path class="st2" d="M837.35,478.88c-23.83,0-43.22,19.39-43.22,43.22c0,23.83,19.39,43.22,43.22,43.22
				c23.83,0,43.22-19.39,43.22-43.22C880.57,498.27,861.18,478.88,837.35,478.88z M837.35,561.9c-21.95,0-39.81-17.85-39.81-39.8
				c0-21.95,17.86-39.81,39.81-39.81s39.8,17.86,39.8,39.81C877.15,544.05,859.3,561.9,837.35,561.9z"/>
			<path class="st2" d="M768.72,577.58l7.36-5.04l-3.92-12.08l-8.92,0.24l-4.07-5.6l2.99-8.4l-10.28-7.47l-7.07,5.44l-6.59-2.14
				l-2.52-8.56H723l-2.52,8.56l-6.59,2.14l-7.06-5.44l-10.28,7.47l2.99,8.4l-4.07,5.6l-8.92-0.24l-3.92,12.08l7.35,5.04v6.93
				l-7.35,5.04l3.92,12.08l8.92-0.25l4.07,5.61l-2.99,8.4l10.28,7.47l7.06-5.45l6.59,2.14l2.52,8.56h12.7l2.52-8.56l6.59-2.14
				l7.07,5.45l10.28-7.47l-2.99-8.4l4.07-5.61l8.92,0.25l3.92-12.08l-7.36-5.04V577.58z M772.05,590.92l-2.35,7.22l-8.16-0.22
				l-6.19,8.51l2.74,7.7l-6.15,4.46l-6.47-4.98l-10.01,3.26l-2.31,7.83h-7.59l-2.31-7.83l-10.01-3.26l-6.47,4.98l-6.15-4.46
				l2.74-7.7l-6.19-8.51l-8.16,0.22l-2.35-7.22l6.74-4.61v-10.53l-6.74-4.62l2.35-7.22l8.16,0.23l6.19-8.52l-2.74-7.69l6.15-4.47
				l6.47,4.99l10.01-3.26l2.31-7.83h7.59l2.31,7.83l10.01,3.26l6.47-4.99l6.15,4.47l-2.74,7.69l6.19,8.52l8.16-0.23l2.35,7.22
				l-6.74,4.62v10.53L772.05,590.92z"/>
			<path class="st2" d="M729.35,551.38c-16.35,0-29.66,13.31-29.66,29.66c0,16.36,13.31,29.67,29.66,29.67
				c16.36,0,29.67-13.31,29.67-29.67C759.02,564.69,745.71,551.38,729.35,551.38z M729.35,607.3c-14.47,0-26.25-11.78-26.25-26.26
				c0-14.47,11.78-26.25,26.25-26.25c14.48,0,26.26,11.78,26.26,26.25C755.61,595.52,743.83,607.3,729.35,607.3z"/>
			<path class="st2" d="M828.11,621.17l-1.09-4.77l3.94-6.86l-6.76-8.48l-7.57,2.31l-4.41-2.12l-2.9-7.36h-10.86l-2.9,7.36
				l-4.41,2.12l-7.57-2.31l-6.76,8.48l3.94,6.86l-1.09,4.77l-6.53,4.47l2.42,10.58l7.82,1.2l3.05,3.83l-0.58,7.89l9.78,4.71
				l5.82-5.37h4.88l5.82,5.37l9.78-4.71l-0.58-7.89l3.05-3.83l7.82-1.2l2.42-10.58L828.11,621.17z M829.41,633.2l-6.84,1.05
				l-4.72,5.91l0.5,6.91l-5.59,2.69l-5.09-4.7h-7.56l-5.09,4.7l-5.59-2.69l0.5-6.91l-4.72-5.91l-6.85-1.05l-1.38-6.05l5.72-3.92
				l1.68-7.37l-3.45-6.01l3.87-4.85l6.63,2.03l6.81-3.28l2.54-6.45H807l2.54,6.45l6.81,3.28l6.63-2.03l3.87,4.85l-3.45,6.01
				l1.68,7.37l5.72,3.92L829.41,633.2z"/>
			<path class="st2" d="M803.89,609.08c-8.07,0-14.63,6.56-14.63,14.62c0,8.07,6.56,14.63,14.63,14.63
				c8.06,0,14.63-6.56,14.63-14.63C818.52,615.64,811.95,609.08,803.89,609.08z M803.89,634.92c-6.18,0-11.21-5.03-11.21-11.22
				c0-6.18,5.03-11.21,11.21-11.21s11.21,5.03,11.21,11.21C815.1,629.89,810.07,634.92,803.89,634.92z"/>
			<polygon class="st2" points="834.56,540.84 817.02,523.31 819.44,520.89 834.56,536.02 858.29,512.28 860.7,514.7 			"/>
		</g>
	</g>
	<g>
		<g>
			<g>
				<g>
					<g>
						<path class="st2" d="M1121.96,1201.21c-6.43-6.43-16.85-6.43-23.28,0c-6.43,6.43-6.43,16.86-0.01,23.28l12.81,12.81
							l23.28-23.29L1121.96,1201.21z M1113.55,1216.08c-2.72,2.72-7.12,2.72-9.83,0c-2.72-2.71-2.72-7.11,0-9.83
							c2.71-2.71,7.11-2.71,9.83,0C1116.26,1208.97,1116.26,1213.37,1113.55,1216.08z"/>
						<path class="st2" d="M1099.19,1196.12l-2.67-2.67c-1.54-1.54-4.05-1.55-5.6,0c-1.55,1.55-1.54,4.06,0,5.6l2.67,2.67
							c0.61-1.16,1.4-2.25,2.38-3.22C1096.94,1197.53,1098.03,1196.73,1099.19,1196.12z"/>
						<path class="st2" d="M1111.77,1214.31c1.73-1.73,1.73-4.55,0-6.28c-1.73-1.73-4.54-1.73-6.27,0.01s-1.74,4.54-0.01,6.27
							C1107.23,1216.04,1110.04,1216.04,1111.77,1214.31z"/>
					</g>
					<g>
						<path class="st2" d="M1129.98,1221.45l2.16-2.16c0.03-0.03,0.07-0.03,0.1,0l9.3,9.3c0.63,0.63,0.63,1.64,0,2.26l0,0
							c-0.63,0.63-1.64,0.63-2.26,0l-9.3-9.3C1129.95,1221.52,1129.95,1221.48,1129.98,1221.45z"/>
						<path class="st2" d="M1116.75,1234.68l2.16-2.16c0.03-0.03,0.07-0.03,0.1,0l9.3,9.3c0.63,0.63,0.63,1.64,0,2.26l0,0
							c-0.63,0.63-1.64,0.63-2.26,0l-9.3-9.3C1116.72,1234.75,1116.72,1234.71,1116.75,1234.68z"/>
					</g>
				</g>
				<g>
					<g>
						<path class="st2" d="M1167,1246.24l-12.81-12.8l-23.29,23.28l12.81,12.81c6.43,6.43,16.85,6.43,23.28,0
							C1173.42,1263.09,1173.42,1252.67,1167,1246.24z M1161.95,1264.48c-2.72,2.72-7.11,2.72-9.83,0c-2.71-2.71-2.71-7.11,0-9.82
							c2.72-2.72,7.11-2.72,9.83,0C1164.67,1257.37,1164.67,1261.77,1161.95,1264.48z"/>
						<path class="st2" d="M1166.48,1274.62l2.67,2.67c1.54,1.54,4.05,1.55,5.6,0c1.55-1.55,1.54-4.06,0-5.6l-2.67-2.67
							c-0.61,1.16-1.4,2.25-2.38,3.22C1168.73,1273.21,1167.64,1274.01,1166.48,1274.62z"/>
						<path class="st2" d="M1153.9,1256.43c-1.73,1.73-1.73,4.55,0,6.28c1.73,1.73,4.54,1.73,6.27-0.01
							c1.73-1.73,1.74-4.54,0.01-6.27C1158.44,1254.7,1155.63,1254.7,1153.9,1256.43z"/>
					</g>
				</g>
			</g>
		</g>
		<polygon class="st2" points="1081.26,1188.75 1036.04,1135.66 958.41,1125.11 959.66,1115.94 1040.8,1126.97 1088.3,1182.75 		"/>
	</g>
	<g>
		<g>
			<g>
				<g>
					<g>
						<path class="st2" d="M505.69,1201.21c-6.43-6.43-16.85-6.43-23.28,0l-12.8,12.8l23.28,23.29l12.81-12.81
							C512.13,1218.07,512.13,1207.64,505.69,1201.21z M500.65,1216.08c-2.71,2.72-7.11,2.72-9.83,0c-2.71-2.71-2.71-7.11,0-9.83
							c2.72-2.71,7.12-2.71,9.83,0C503.37,1208.97,503.37,1213.37,500.65,1216.08z"/>
						<path class="st2" d="M505.19,1196.12l2.67-2.67c1.54-1.54,4.05-1.55,5.6,0c1.55,1.55,1.54,4.06,0,5.6l-2.67,2.67
							c-0.61-1.16-1.4-2.25-2.38-3.22C507.44,1197.53,506.35,1196.73,505.19,1196.12z"/>
						<path class="st2" d="M492.6,1214.31c-1.73-1.73-1.73-4.55,0-6.28c1.73-1.73,4.54-1.73,6.27,0.01
							c1.73,1.73,1.74,4.54,0.01,6.27C497.15,1216.04,494.33,1216.04,492.6,1214.31z"/>
					</g>
					<g>
						<path class="st2" d="M474.39,1221.45l-2.16-2.16c-0.03-0.03-0.07-0.03-0.1,0l-9.3,9.3c-0.63,0.63-0.63,1.64,0,2.26l0,0
							c0.63,0.63,1.64,0.63,2.26,0l9.3-9.3C474.42,1221.52,474.42,1221.48,474.39,1221.45z"/>
						<path class="st2" d="M487.62,1234.68l-2.16-2.16c-0.03-0.03-0.07-0.03-0.1,0l-9.3,9.3c-0.63,0.63-0.63,1.64,0,2.26l0,0
							c0.63,0.63,1.64,0.63,2.26,0l9.3-9.3C487.65,1234.75,487.65,1234.71,487.62,1234.68z"/>
					</g>
				</g>
				<g>
					<g>
						<path class="st2" d="M450.18,1233.44l-12.8,12.8c-6.43,6.43-6.43,16.85,0,23.29c6.43,6.43,16.86,6.43,23.28,0l12.81-12.81
							L450.18,1233.44z M452.25,1264.48c-2.71,2.72-7.11,2.72-9.83,0c-2.71-2.71-2.71-7.11,0-9.82c2.72-2.72,7.12-2.72,9.83,0
							C454.97,1257.37,454.97,1261.77,452.25,1264.48z"/>
						<path class="st2" d="M437.89,1274.62l-2.67,2.67c-1.54,1.54-4.05,1.55-5.6,0c-1.55-1.55-1.54-4.06,0-5.6l2.67-2.67
							c0.61,1.16,1.4,2.25,2.38,3.22C435.64,1273.21,436.73,1274.01,437.89,1274.62z"/>
						<path class="st2" d="M450.48,1256.43c1.73,1.73,1.73,4.55,0,6.28c-1.73,1.73-4.54,1.73-6.27-0.01
							c-1.73-1.73-1.74-4.54-0.01-6.27C445.93,1254.7,448.74,1254.7,450.48,1256.43z"/>
					</g>
				</g>
			</g>
		</g>
		<polygon class="st2" points="523.11,1188.75 516.07,1182.75 563.58,1126.97 644.71,1115.94 645.96,1125.11 568.33,1135.66 		"/>
	</g>
	<path class="st0" d="M1128.99,99.02H471c-23.24,0-42.14,18.91-42.14,42.15v179.74c0,23.24,18.9,42.15,42.14,42.15h657.99
		c23.24,0,42.15-18.91,42.15-42.15V141.17C1171.14,117.93,1152.23,99.02,1128.99,99.02z M1160.64,320.91
		c0,17.45-14.2,31.65-31.65,31.65H471c-17.45,0-31.65-14.2-31.65-31.65V141.17c0-17.45,14.2-31.65,31.65-31.65h657.99
		c17.45,0,31.65,14.2,31.65,31.65V320.91z"/>
</g>
</svg>
