<svg xmlns="http://www.w3.org/2000/svg" xmlns:xlink="http://www.w3.org/1999/xlink" width="300" zoomAndPan="magnify" viewBox="0 0 224.87999 225" height="300" preserveAspectRatio="xMidYMid meet" version="1.0"><defs><clipPath id="c2fbe3da31"><path d="M 59 103.699219 L 157 103.699219 L 157 166 L 59 166 Z M 59 103.699219 " clip-rule="nonzero"/></clipPath><clipPath id="c5df31eac2"><path d="M 78.0625 103.769531 C 77.308594 106.566406 76.960938 109.472656 76.960938 112.5 C 76.960938 132.0625 92.910156 147.953125 112.410156 147.953125 L 156.59375 147.953125 L 156.59375 165.414062 L 112.402344 165.414062 C 83.242188 165.414062 59.488281 141.660156 59.488281 112.5 C 59.488281 109.535156 59.722656 106.617188 60.246094 103.769531 Z M 78.0625 103.769531 " clip-rule="nonzero"/></clipPath><clipPath id="efbe7d44ea"><path d="M 5 5 L 167.753906 5 L 167.753906 220 L 5 220 Z M 5 5 " clip-rule="nonzero"/></clipPath><clipPath id="045845116b"><path d="M 167.351562 202.375 L 167.351562 219.84375 L 112.402344 219.84375 C 54.308594 219.84375 6.171875 172.632812 5.121094 114.542969 C 4.539062 86.300781 15.480469 59.292969 35.796875 38.570312 C 56.632812 17.328125 85.507812 5.160156 115.023438 5.160156 L 167.351562 5.160156 L 167.351562 77.113281 L 73.113281 77.113281 C 82.785156 66.402344 96.808594 59.652344 112.410156 59.652344 L 149.902344 59.652344 L 149.902344 22.621094 L 115.023438 22.621094 C 90.167969 22.621094 65.832031 32.921875 48.25 50.789062 C 31.25 68.136719 22.109375 90.664062 22.582031 114.234375 C 23.457031 162.84375 63.792969 202.363281 112.402344 202.363281 Z M 167.351562 202.375 " clip-rule="nonzero"/></clipPath><clipPath id="726210751e"><path d="M 133 103.699219 L 220 103.699219 L 220 220 L 133 220 Z M 133 103.699219 " clip-rule="nonzero"/></clipPath><clipPath id="0b44ded9b1"><path d="M 219.742188 166.984375 L 219.742188 219.84375 L 202.28125 219.84375 L 202.28125 166.984375 C 202.28125 141.78125 181.792969 121.230469 156.59375 121.230469 L 133.296875 121.230469 L 133.296875 103.769531 L 156.582031 103.769531 C 191.453125 103.769531 219.742188 132.125 219.742188 166.984375 " clip-rule="nonzero"/></clipPath><clipPath id="f4cc3f0702"><path d="M 120.328125 100 L 145.796875 100 L 145.796875 125 L 120.328125 125 Z M 120.328125 100 " clip-rule="nonzero"/></clipPath><clipPath id="bb078fda14"><path d="M 145.78125 112.5 C 145.78125 119.394531 140.191406 124.976562 133.308594 124.976562 C 126.425781 124.976562 120.835938 119.386719 120.835938 112.5 C 120.835938 105.617188 126.425781 100.027344 133.308594 100.027344 C 140.191406 100.027344 145.78125 105.617188 145.78125 112.5 " clip-rule="nonzero"/></clipPath><clipPath id="52f8effad4"><path d="M 149.890625 147.953125 L 167.351562 147.953125 L 167.351562 182.882812 L 149.890625 182.882812 Z M 149.890625 147.953125 " clip-rule="nonzero"/></clipPath></defs><g clip-path="url(#c2fbe3da31)"><g clip-path="url(#c5df31eac2)"><path fill="#1db8c3" d="M 0 0.0585938 L 224.84375 0.0585938 L 224.84375 224.902344 L 0 224.902344 Z M 0 0.0585938 " fill-opacity="1" fill-rule="nonzero"/></g></g><g clip-path="url(#efbe7d44ea)"><g clip-path="url(#045845116b)"><path fill="#1db8c3" d="M 0 0.0585938 L 224.84375 0.0585938 L 224.84375 224.902344 L 0 224.902344 Z M 0 0.0585938 " fill-opacity="1" fill-rule="nonzero"/></g></g><g clip-path="url(#726210751e)"><g clip-path="url(#0b44ded9b1)"><path fill="#1db8c3" d="M 0 0.0585938 L 224.84375 0.0585938 L 224.84375 224.902344 L 0 224.902344 Z M 0 0.0585938 " fill-opacity="1" fill-rule="nonzero"/></g></g><g clip-path="url(#f4cc3f0702)"><g clip-path="url(#bb078fda14)"><path fill="#1db8c3" d="M 0 0.0585938 L 224.84375 0.0585938 L 224.84375 224.902344 L 0 224.902344 Z M 0 0.0585938 " fill-opacity="1" fill-rule="nonzero"/></g></g><g clip-path="url(#52f8effad4)"><path fill="#1db8c3" d="M 0 0.0585938 L 224.84375 0.0585938 L 224.84375 224.902344 L 0 224.902344 Z M 0 0.0585938 " fill-opacity="1" fill-rule="nonzero"/></g></svg>